<svg width="125" height="20" viewBox="0 0 125 20" fill="none" xmlns="http://www.w3.org/2000/svg">
<path d="M9.72612 0.479702C10.0427 -0.1599 10.9573 -0.159901 11.2739 0.479701L13.85 5.68471C13.9757 5.9387 14.2187 6.11474 14.4998 6.15547L20.2602 6.99013C20.968 7.0927 21.2506 7.96011 20.7384 8.45797L16.5702 12.5095C16.3668 12.7072 16.274 12.992 16.322 13.2712L17.306 18.9921C17.4269 19.6951 16.6869 20.2311 16.0538 19.8992L10.9016 17.1982C10.6502 17.0664 10.3498 17.0664 10.0984 17.1982L4.94617 19.8992C4.31306 20.2311 3.5731 19.6951 3.69401 18.9921L4.678 13.2712C4.72602 12.992 4.6332 12.7072 4.42981 12.5095L0.261558 8.45797C-0.250645 7.96011 0.0319943 7.0927 0.739841 6.99013L6.50022 6.15547C6.78131 6.11474 7.0243 5.9387 7.15 5.68471L9.72612 0.479702Z" fill="currentColor"/>
<path d="M35.7261 0.479702C36.0427 -0.1599 36.9573 -0.159901 37.2739 0.479701L39.85 5.68471C39.9757 5.9387 40.2187 6.11474 40.4998 6.15547L46.2602 6.99013C46.968 7.0927 47.2506 7.96011 46.7384 8.45797L42.5702 12.5095C42.3668 12.7072 42.274 12.992 42.322 13.2712L43.306 18.9921C43.4269 19.6951 42.6869 20.2311 42.0538 19.8992L36.9016 17.1982C36.6502 17.0664 36.3498 17.0664 36.0984 17.1982L30.9462 19.8992C30.3131 20.2311 29.5731 19.6951 29.694 18.9921L30.678 13.2712C30.726 12.992 30.6332 12.7072 30.4298 12.5095L26.2616 8.45797C25.7494 7.96011 26.032 7.0927 26.7398 6.99013L32.5002 6.15547C32.7813 6.11474 33.0243 5.9387 33.15 5.68471L35.7261 0.479702Z" fill="currentColor"/>
<path d="M61.7261 0.479702C62.0427 -0.1599 62.9573 -0.159901 63.2739 0.479701L65.85 5.68471C65.9757 5.9387 66.2187 6.11474 66.4998 6.15547L72.2602 6.99013C72.968 7.0927 73.2506 7.96011 72.7384 8.45797L68.5702 12.5095C68.3668 12.7072 68.274 12.992 68.322 13.2712L69.306 18.9921C69.4269 19.6951 68.6869 20.2311 68.0538 19.8992L62.9016 17.1982C62.6502 17.0664 62.3498 17.0664 62.0984 17.1982L56.9462 19.8992C56.3131 20.2311 55.5731 19.6951 55.694 18.9921L56.678 13.2712C56.726 12.992 56.6332 12.7072 56.4298 12.5095L52.2616 8.45797C51.7494 7.96011 52.032 7.0927 52.7398 6.99013L58.5002 6.15547C58.7813 6.11474 59.0243 5.9387 59.15 5.68471L61.7261 0.479702Z" fill="currentColor"/>
<path d="M87.7261 0.479702C88.0427 -0.1599 88.9573 -0.159901 89.2739 0.479701L91.85 5.68471C91.9757 5.9387 92.2187 6.11474 92.4998 6.15547L98.2602 6.99013C98.968 7.0927 99.2506 7.96011 98.7384 8.45797L94.5702 12.5095C94.3668 12.7072 94.274 12.992 94.322 13.2712L95.306 18.9921C95.4269 19.6951 94.6869 20.2311 94.0538 19.8992L88.9016 17.1982C88.6502 17.0664 88.3498 17.0664 88.0984 17.1982L82.9462 19.8992C82.3131 20.2311 81.5731 19.6951 81.694 18.9921L82.678 13.2712C82.726 12.992 82.6332 12.7072 82.4298 12.5095L78.2616 8.45797C77.7494 7.96011 78.032 7.0927 78.7398 6.99013L84.5002 6.15547C84.7813 6.11474 85.0243 5.9387 85.15 5.68471L87.7261 0.479702Z" fill="currentColor"/>
<path d="M113.726 0.479702C114.043 -0.1599 114.957 -0.159901 115.274 0.479701L117.85 5.68471C117.976 5.9387 118.219 6.11474 118.5 6.15547L124.26 6.99013C124.968 7.0927 125.251 7.96011 124.738 8.45797L120.57 12.5095C120.367 12.7072 120.274 12.992 120.322 13.2712L121.306 18.9921C121.427 19.6951 120.687 20.2311 120.054 19.8992L114.902 17.1982C114.65 17.0664 114.35 17.0664 114.098 17.1982L108.946 19.8992C108.313 20.2311 107.573 19.6951 107.694 18.9921L108.678 13.2712C108.726 12.992 108.633 12.7072 108.43 12.5095L104.262 8.45797C103.749 7.96011 104.032 7.0927 104.74 6.99013L110.5 6.15547C110.781 6.11474 111.024 5.9387 111.15 5.68471L113.726 0.479702Z" fill="currentColor"/>
</svg>
