<svg width="20" height="20" viewBox="0 0 20 20" fill="none" xmlns="http://www.w3.org/2000/svg">
<path class="icon" d="M10.2001 6.00009C7.65386 6.00009 5.60006 8.05389 5.60006 10.6001C5.60006 13.1463 7.65386 15.2001 10.2001 15.2001C12.7463 15.2001 14.8001 13.1463 14.8001 10.6001C14.8001 8.05389 12.7463 6.00009 10.2001 6.00009ZM10.2001 13.6001C8.54946 13.6001 7.20006 12.2547 7.20006 10.6001C7.20006 8.94549 8.54546 7.60009 10.2001 7.60009C11.8547 7.60009 13.2001 8.94549 13.2001 10.6001C13.2001 12.2547 11.8507 13.6001 10.2001 13.6001ZM15.6001 5.80009C15.6001 6.35605 15.1523 6.80009 14.6001 6.80009C14.0441 6.80009 13.6001 6.35233 13.6001 5.80009C13.6001 5.24785 14.0478 4.80009 14.6001 4.80009C15.1523 4.80009 15.6001 5.24785 15.6001 5.80009ZM18.7382 6.77129C18.6715 5.36141 18.3495 4.11257 17.3169 3.08361C16.2881 2.05465 15.0396 1.73265 13.63 1.66193C12.1772 1.57949 7.8229 1.57949 6.37014 1.66193C4.96446 1.72869 3.7159 2.05073 2.68326 3.07969C1.65062 4.10861 1.33258 5.35749 1.2619 6.76737C1.17946 8.22045 1.17946 12.5758 1.2619 14.0289C1.32866 15.4388 1.65062 16.6876 2.68326 17.7166C3.7159 18.7455 4.96054 19.0675 6.37014 19.1382C7.8229 19.2207 12.1772 19.2207 13.63 19.1382C15.0396 19.0715 16.2881 18.7494 17.3169 17.7166C18.3456 16.6876 18.6675 15.4388 18.7382 14.0289C18.8207 12.5758 18.8207 8.22437 18.7382 6.77129ZM16.8373 15.5701C16.532 16.3372 15.9411 16.9281 15.1701 17.2373C14.0155 17.6952 11.2759 17.5896 10.0001 17.5896C8.72418 17.5896 5.9807 17.6913 4.83006 17.2373C4.06298 16.932 3.47202 16.3411 3.16282 15.5701C2.70494 14.4155 2.81058 11.676 2.81058 10.4001C2.81058 9.12421 2.70886 6.38073 3.16282 5.23009C3.4681 4.46301 4.05906 3.87205 4.83006 3.56285C5.98462 3.10497 8.72418 3.21061 10.0001 3.21061C11.2759 3.21061 14.0194 3.10889 15.1701 3.56285C15.9371 3.86813 16.5281 4.45909 16.8373 5.23009C17.2952 6.38465 17.1895 9.12421 17.1895 10.4001C17.1895 11.676 17.2952 14.4194 16.8373 15.5701Z" fill="currentColor"/>
</svg>
