<svg width="20" height="20" viewBox="0 0 20 20" fill="none" xmlns="http://www.w3.org/2000/svg">
<path class="icon" fill-rule="evenodd" clip-rule="evenodd" d="M12.1237 13.1238C11.2138 13.6797 10.1443 14 9 14C5.68629 14 3 11.3137 3 8C3 4.68629 5.68629 2 9 2C12.3137 2 15 4.68629 15 8C15 9.44591 14.4885 10.7724 13.6367 11.8083L17.4142 15.5858L16 17L12.1237 13.1238ZM13 8C13 10.2091 11.2091 12 9 12C6.79086 12 5 10.2091 5 8C5 5.79086 6.79086 4 9 4C11.2091 4 13 5.79086 13 8Z" fill="currentColor"/>
</svg>
