<svg width="20" height="20" viewBox="0 0 20 20" fill="none" xmlns="http://www.w3.org/2000/svg">
<path class="icon" d="M18.9916 5.59515C18.9113 7.3469 17.6899 9.74552 15.3194 12.791C12.8725 15.9731 10.8034 17.5641 9.10788 17.5641C8.05924 17.5641 7.17131 16.5958 6.44409 14.6593C5.02983 9.46829 4.42717 6.42683 3.25799 6.42683C3.12139 6.42683 2.65131 6.7121 1.84373 7.27458L1 6.18175C3.07317 4.36169 5.05394 2.33673 6.29543 2.22424C7.69764 2.08763 8.55744 3.04788 8.88288 5.09695C10.036 12.3892 10.5462 13.4901 12.6435 10.1875C13.3948 8.99821 13.8006 8.09421 13.8569 7.47146C14.0497 5.6273 12.4185 5.75185 11.3136 6.22594C12.1976 3.32913 13.889 1.9229 16.3841 2.00326C18.2242 2.05147 19.0961 3.25279 18.9916 5.59515Z" fill="currentColor"/>
</svg>
