<svg width="20" height="20" viewBox="0 0 20 20" fill="none" xmlns="http://www.w3.org/2000/svg">
<path d="M10.1719 1C6.56484 1 3 3.4668 3 7.45913C3 9.99806 4.39219 11.4406 5.23594 11.4406C5.58398 11.4406 5.78437 10.4453 5.78437 10.164C5.78437 9.82856 4.95117 9.11448 4.95117 7.71879C4.95117 4.81922 7.10273 2.76355 9.88711 2.76355C12.2812 2.76355 14.0531 4.15924 14.0531 6.72341C14.0531 8.63843 13.3043 12.2304 10.8785 12.2304C10.0031 12.2304 9.2543 11.5813 9.2543 10.6508C9.2543 9.28759 10.1824 7.96763 10.1824 6.56112C10.1824 4.17366 6.88125 4.60644 6.88125 7.49158C6.88125 8.09747 6.95508 8.76826 7.21875 9.32005C6.73359 11.4623 5.74219 14.654 5.74219 16.8611C5.74219 17.5427 5.83711 18.2135 5.90039 18.8951C6.01992 19.0322 5.96016 19.0178 6.14297 18.9492C7.91484 16.4608 7.85156 15.9739 8.65313 12.7173C9.08555 13.5612 10.2035 14.0156 11.0895 14.0156C14.823 14.0156 16.5 10.283 16.5 6.91816C16.5 3.33697 13.4836 1 10.1719 1Z" fill="currentColor"/>
</svg>
