<svg width="20" height="20" viewBox="0 0 20 20" fill="none" xmlns="http://www.w3.org/2000/svg">
<path class="icon" d="M17.1498 6.6434C17.1612 6.80329 17.1612 6.96321 17.1612 7.12311C17.1612 12 13.4493 17.6193 6.66499 17.6193C4.57488 17.6193 2.63326 17.014 1 15.9633C1.29697 15.9975 1.58247 16.0089 1.89086 16.0089C3.61546 16.0089 5.20305 15.4264 6.47083 14.4328C4.84899 14.3985 3.48985 13.3363 3.02156 11.8744C3.25001 11.9086 3.47842 11.9315 3.71829 11.9315C4.0495 11.9315 4.38074 11.8858 4.6891 11.8059C2.99875 11.4632 1.73094 9.97844 1.73094 8.18529V8.13962C2.22204 8.41373 2.79315 8.58505 3.39844 8.60787C2.40478 7.94541 1.75379 6.81471 1.75379 5.53551C1.75379 4.85025 1.9365 4.22207 2.25631 3.67384C4.07232 5.91243 6.80203 7.37433 9.86293 7.53426C9.80583 7.26015 9.77155 6.97464 9.77155 6.6891C9.77155 4.65608 11.4162 3 13.4607 3C14.5228 3 15.4822 3.44543 16.1561 4.16498C16.9898 4.00509 17.7893 3.69669 18.4975 3.27411C18.2233 4.13074 17.6409 4.85028 16.8756 5.3071C17.618 5.22719 18.3376 5.02156 19 4.73606C18.4975 5.46699 17.8693 6.11799 17.1498 6.6434Z" fill="currentColor"/>
</svg>
