<svg width="20" height="20" viewBox="0 0 20 20" fill="none" xmlns="http://www.w3.org/2000/svg">
<path class="icon" fill-rule="evenodd" clip-rule="evenodd" d="M7.68781 6.05785C7.68781 4.78085 8.72302 3.74564 10 3.74564C11.277 3.74564 12.3122 4.78085 12.3122 6.05785C12.3122 7.33486 11.277 8.37007 10 8.37007C8.72302 8.37007 7.68781 7.33486 7.68781 6.05785ZM10 2C7.75893 2 5.94217 3.81676 5.94217 6.05785C5.94217 8.29894 7.75893 10.1157 10 10.1157C12.2411 10.1157 14.0579 8.29894 14.0579 6.05785C14.0579 3.81676 12.2411 2 10 2ZM3.66734 18.2601C4.57346 15.3374 7.09788 13.3006 10 13.3006C12.9021 13.3006 15.4265 15.3374 16.3327 18.2601L18 17.7431C16.8974 14.1865 13.7638 11.555 10 11.555C6.23621 11.555 3.10265 14.1865 2 17.7431L3.66734 18.2601Z" fill="currentColor"/>
</svg>
