<svg width="20" height="20" viewBox="0 0 20 20" fill="none" xmlns="http://www.w3.org/2000/svg">
<path class="icon" fill-rule="evenodd" clip-rule="evenodd" d="M11.0236 2.36854C12.8483 0.54382 15.8067 0.543821 17.6315 2.36854C19.4562 4.19326 19.4562 7.15171 17.6315 8.97643L16.1764 10.4315C14.3517 12.2562 11.3933 12.2562 9.56854 10.4315C7.74382 8.60674 7.74382 5.64829 9.56854 3.82357L11.0236 2.36854ZM16.3587 3.64133C15.2369 2.51956 13.4181 2.51956 12.2964 3.64133L10.8413 5.09636C9.71956 6.21813 9.71956 8.03689 10.8413 9.15867C11.9631 10.2804 13.7819 10.2804 14.9036 9.15867L16.3587 7.70364C17.4804 6.58186 17.4804 4.76311 16.3587 3.64133Z" fill="currentColor"/>
<path class="icon" fill-rule="evenodd" clip-rule="evenodd" d="M3.82357 9.56854C5.64829 7.74382 8.60674 7.74382 10.4315 9.56854C12.2562 11.3933 12.2562 14.3517 10.4315 16.1764L8.97643 17.6315C7.15171 19.4562 4.19326 19.4562 2.36854 17.6315C0.543821 15.8067 0.54382 12.8483 2.36854 11.0236L3.82357 9.56854ZM9.15867 10.8413C8.03689 9.71956 6.21813 9.71956 5.09636 10.8413L3.64133 12.2964C2.51956 13.4181 2.51956 15.2369 3.64133 16.3587C4.76311 17.4804 6.58186 17.4804 7.70364 16.3587L9.15867 14.9036C10.2804 13.7819 10.2804 11.9631 9.15867 10.8413Z" fill="currentColor"/>
<path class="icon" fill-rule="evenodd" clip-rule="evenodd" d="M5.35021 13.3771L12.8421 5.88524L14.1149 7.15803L6.623 14.6499L5.35021 13.3771Z" fill="currentColor"/>
</svg>
