<svg width="20" height="20" viewBox="0 0 20 20" fill="none" xmlns="http://www.w3.org/2000/svg">
<path class="icon" fill-rule="evenodd" clip-rule="evenodd" d="M10.9098 3.21648C12.5318 1.59451 15.1615 1.59451 16.7835 3.21648C18.4055 4.83845 18.4055 7.46819 16.7835 9.09016L15.4902 10.3835C13.8682 12.0055 11.2385 12.0055 9.61648 10.3835C7.99451 8.76155 7.99451 6.13181 9.61648 4.50984L10.9098 3.21648ZM15.6521 4.34785C14.655 3.35072 13.0383 3.35072 12.0412 4.34785L10.7479 5.64121C9.75072 6.63834 9.75072 8.25502 10.7479 9.25215C11.745 10.2493 13.3617 10.2493 14.3588 9.25215L15.6522 7.95879C16.6493 6.96166 16.6493 5.34498 15.6521 4.34785Z" fill="currentColor"/>
<path class="icon" fill-rule="evenodd" clip-rule="evenodd" d="M4.50984 9.61648C6.13181 7.99451 8.76155 7.99451 10.3835 9.61648C12.0055 11.2385 12.0055 13.8682 10.3835 15.4902L9.09016 16.7835C7.46819 18.4055 4.83845 18.4055 3.21648 16.7835C1.59451 15.1615 1.59451 12.5318 3.21648 10.9098L4.50984 9.61648ZM9.25215 10.7479C8.25502 9.75072 6.63834 9.75072 5.64121 10.7479L4.34785 12.0412C3.35072 13.0383 3.35072 14.655 4.34785 15.6522C5.34498 16.6493 6.96166 16.6493 7.95879 15.6522L9.25215 14.3588C10.2493 13.3617 10.2493 11.745 9.25215 10.7479Z" fill="currentColor"/>
<path class="icon" fill-rule="evenodd" clip-rule="evenodd" d="M5.86685 13.0019L12.5263 6.34243L13.6577 7.4738L6.99822 14.1333L5.86685 13.0019Z" fill="currentColor"/>
</svg>
