<svg width="20" height="20" viewBox="0 0 20 20" fill="none" xmlns="http://www.w3.org/2000/svg">
<path class="icon" d="M18.8154 5.60286C18.6038 4.81454 17.9803 4.19366 17.1887 3.98298C15.7538 3.6001 9.99993 3.6001 9.99993 3.6001C9.99993 3.6001 4.24613 3.6001 2.81117 3.98298C2.01953 4.1937 1.39605 4.81454 1.18441 5.60286C0.799927 7.03178 0.799927 10.013 0.799927 10.013C0.799927 10.013 0.799927 12.9943 1.18441 14.4232C1.39605 15.2115 2.01953 15.8065 2.81117 16.0172C4.24613 16.4001 9.99993 16.4001 9.99993 16.4001C9.99993 16.4001 15.7537 16.4001 17.1887 16.0172C17.9803 15.8065 18.6038 15.2115 18.8154 14.4232C19.1999 12.9943 19.1999 10.013 19.1999 10.013C19.1999 10.013 19.1999 7.03178 18.8154 5.60286ZM8.11809 12.7198V7.30626L12.9272 10.0131L8.11809 12.7198Z" fill="currentColor"/>
</svg>
