<svg width="20" height="20" viewBox="0 0 20 20" fill="none" xmlns="http://www.w3.org/2000/svg">
<path class="icon" d="M16.304 3.61562C14.6205 1.92812 12.3786 1 9.99598 1C5.07812 1 1.07634 5.00179 1.07634 9.91964C1.07634 11.4906 1.48616 13.0254 2.26562 14.3795L1 19L5.72902 17.7585C7.0308 18.4696 8.49732 18.8433 9.99196 18.8433H9.99598C14.9098 18.8433 19 14.8415 19 9.92366C19 7.54107 17.9875 5.30312 16.304 3.61562ZM9.99598 17.3406C8.66205 17.3406 7.35625 16.983 6.2192 16.308L5.95 16.1473L3.14554 16.8826L3.89286 14.1464L3.71607 13.8652C2.97277 12.6839 2.58304 11.3219 2.58304 9.91964C2.58304 5.83348 5.90982 2.5067 10 2.5067C11.9808 2.5067 13.8411 3.27812 15.2393 4.68036C16.6375 6.08259 17.4973 7.94286 17.4933 9.92366C17.4933 14.0138 14.0821 17.3406 9.99598 17.3406ZM14.0621 11.7879C13.8411 11.6754 12.7442 11.1371 12.5393 11.0647C12.3344 10.9884 12.1857 10.9522 12.0371 11.1772C11.8884 11.4022 11.4625 11.9004 11.3299 12.0531C11.2013 12.2018 11.0688 12.2219 10.8478 12.1094C9.53795 11.4545 8.67813 10.9402 7.81429 9.45759C7.58527 9.06384 8.0433 9.09196 8.4692 8.24018C8.54152 8.09152 8.50536 7.96295 8.44911 7.85045C8.39286 7.73795 7.94688 6.64107 7.76205 6.19509C7.58125 5.76116 7.39643 5.82143 7.25982 5.81339C7.13125 5.80536 6.98259 5.80536 6.83393 5.80536C6.68527 5.80536 6.4442 5.86161 6.23929 6.08259C6.03437 6.30759 5.45982 6.84598 5.45982 7.94286C5.45982 9.03973 6.25938 10.1004 6.36786 10.2491C6.48036 10.3978 7.93884 12.6478 10.1768 13.6161C11.5911 14.2268 12.1455 14.279 12.8527 14.1746C13.2826 14.1103 14.1705 13.6362 14.3554 13.1138C14.5402 12.5915 14.5402 12.1455 14.4839 12.0531C14.4317 11.9527 14.283 11.8964 14.0621 11.7879Z" fill="currentColor"/>
</svg>
