<svg width="20" height="20" viewBox="0 0 20 20" fill="none" xmlns="http://www.w3.org/2000/svg">
<path class="icon" d="M5.58143 17.9996H2.26429V7.3175H5.58143V17.9996ZM3.92107 5.86036C2.86036 5.86036 2 4.98179 2 3.92107C2 3.41157 2.2024 2.92294 2.56267 2.56267C2.92294 2.2024 3.41157 2 3.92107 2C4.43057 2 4.9192 2.2024 5.27947 2.56267C5.63974 2.92294 5.84214 3.41157 5.84214 3.92107C5.84214 4.98179 4.98143 5.86036 3.92107 5.86036ZM17.9964 17.9996H14.6864V12.7996C14.6864 11.5604 14.6614 9.97107 12.9618 9.97107C11.2371 9.97107 10.9729 11.3175 10.9729 12.7104V17.9996H7.65929V7.3175H10.8407V8.77464H10.8871C11.33 7.93536 12.4118 7.04964 14.0257 7.04964C17.3829 7.04964 18 9.26036 18 12.1318V17.9996H17.9964Z" fill="currentColor"/>
</svg>
