<svg width="20" height="20" viewBox="0 0 20 20" fill="none" xmlns="http://www.w3.org/2000/svg">
<path class="icon" fill-rule="evenodd" clip-rule="evenodd" d="M6.45752 11.8728L5.12647 4.61251H2L2 3L6.47023 3L6.8644 5.15L18 5.15L16.6719 13.2125L6.67822 13.2125L6.45752 11.8728ZM8.0469 11.6L15.3033 11.6L16.1001 6.76251L7.24995 6.76251L8.04622 11.5963L8.0469 11.6Z" fill="currentColor"/>
<path class="icon" d="M9.52504 16.1688C9.52504 17.0594 8.80309 17.7813 7.91253 17.7813C7.02197 17.7813 6.30002 17.0594 6.30002 16.1688C6.30002 15.2782 7.02197 14.5563 7.91253 14.5563C8.80309 14.5563 9.52504 15.2782 9.52504 16.1688Z" fill="currentColor"/>
<path class="icon" d="M15.4376 17.7813C16.3281 17.7813 17.0501 17.0594 17.0501 16.1688C17.0501 15.2782 16.3281 14.5563 15.4376 14.5563C14.547 14.5563 13.8251 15.2782 13.8251 16.1688C13.8251 17.0594 14.547 17.7813 15.4376 17.7813Z" fill="currentColor"/>
</svg>
