<svg width="500" height="500" viewBox="0 0 500 500" fill="none" xmlns="http://www.w3.org/2000/svg">
<path d="M0 500L-1.09278e-05 250C-1.69631e-05 111.929 111.929 -4.89256e-06 250 -1.09278e-05V-1.09278e-05L250 250C250 388.071 138.071 500 0 500V500Z" fill="black"/>
<path d="M500 500C361.929 500 250 388.071 250 250L250 236.607C250 174.968 299.968 125 361.607 125L375 125C444.036 125 500 180.964 500 250L500 500V500Z" fill="black"/>
<path d="M375 125C444.036 125 500 69.0356 500 -1.09278e-05L250 0C250 69.0356 305.964 125 375 125Z" fill="black"/>
</svg>
